<svg xmlns="http://www.w3.org/2000/svg" width="13" height="18" viewBox="0 0 13 18" fill="none">
  <path d="M11.3896 6.44043C11.3896 3.59156 9.12069 1.30078 6.34473 1.30078C3.5689 1.30095 1.30078 3.59167 1.30078 6.44043C1.30083 7.98707 1.96991 9.3718 3.02832 10.3135L3.24512 10.4951L3.27441 10.5205L3.72852 10.9277C4.52811 11.6447 4.98535 12.6682 4.98535 13.7422H3.68555C3.68555 13.0375 3.38503 12.3659 2.86035 11.8955L2.40625 11.4883C0.940375 10.3083 5.49108e-05 8.48418 0 6.44043C0 2.8941 2.8307 0.000172731 6.34473 0C9.8589 0 12.6895 2.894 12.6895 6.44043C12.6894 8.48187 11.7511 10.3023 10.2881 11.4824L9.80176 11.9297C9.29396 12.3953 9.00488 13.0532 9.00488 13.7422H7.70508C7.70508 12.689 8.14665 11.6835 8.92285 10.9717L9.41016 10.5254L9.42676 10.5098L9.44531 10.4951C10.6279 9.55496 11.3896 8.08992 11.3896 6.44043Z" fill="black"/>
  <path d="M9.01953 14.4517V15.7515H3.68652V14.4517H9.01953Z" fill="black"/>
  <path d="M6.54614 2.74658C8.53316 2.74658 10.1438 4.35819 10.1438 6.34521H8.84399C8.84399 5.07616 7.81519 4.04736 6.54614 4.04736V2.74658Z" fill="black"/>
  <path d="M8.01978 16.3506V17.6504H4.67017V16.3506H8.01978Z" fill="black"/>
</svg>