<svg xmlns="http://www.w3.org/2000/svg" width="14" height="14" viewBox="0 0 14 14" fill="none">
  <path d="M12.7002 7C12.7002 3.85198 10.148 1.2998 7 1.2998C3.85198 1.2998 1.2998 3.85198 1.2998 7C1.2998 10.148 3.85198 12.7002 7 12.7002V14C3.13401 14 0 10.866 0 7C0 3.13401 3.13401 0 7 0C10.866 0 14 3.13401 14 7C14 10.866 10.866 14 7 14V12.7002C10.148 12.7002 12.7002 10.148 12.7002 7Z" fill="black"/>
  <path d="M6.13306 9.5L4.83325 9.5L4.83325 4.5L6.13306 4.5L6.13306 9.5Z" fill="black"/>
  <path d="M9.13306 9.5L7.83325 9.5L7.83325 4.5L9.13306 4.5L9.13306 9.5Z" fill="black"/>
</svg>