<svg xmlns="http://www.w3.org/2000/svg" width="14" height="14" viewBox="0 0 14 14" fill="none">
  <path d="M12.7002 7C12.7002 3.85198 10.148 1.2998 7 1.2998C3.85198 1.2998 1.2998 3.85198 1.2998 7C1.2998 10.148 3.85198 12.7002 7 12.7002V14C3.13401 14 0 10.866 0 7C0 3.13401 3.13401 0 7 0C10.866 0 14 3.13401 14 7C14 10.866 10.866 14 7 14V12.7002C10.148 12.7002 12.7002 10.148 12.7002 7Z" fill="black"/>
  <path d="M9.87728 5.1888L6.89388 9.75619L3.9554 7.65755L4.71126 6.59994L6.54622 7.91048L8.78939 4.47786L9.87728 5.1888Z" fill="black"/>
</svg>